<svg width="514" height="395" viewBox="0 0 514 395" fill="none" xmlns="http://www.w3.org/2000/svg">
<g clip-path="url(#clip0_157_118)">
<path d="M7.58691 388.665C7.58926 388.798 7.61727 388.929 7.66933 389.051C7.72139 389.172 7.79649 389.282 7.89031 389.374C7.98414 389.467 8.09486 389.539 8.21613 389.587C8.3374 389.636 8.46684 389.659 8.59704 389.657H512.326C512.457 389.662 512.588 389.641 512.711 389.594C512.833 389.546 512.946 389.474 513.04 389.382C513.135 389.289 513.21 389.178 513.262 389.055C513.313 388.932 513.34 388.799 513.34 388.665C513.34 388.531 513.313 388.399 513.262 388.276C513.21 388.153 513.135 388.041 513.04 387.949C512.946 387.856 512.833 387.784 512.711 387.737C512.588 387.69 512.457 387.668 512.326 387.674H8.59704C8.46689 387.671 8.33749 387.695 8.21626 387.743C8.09503 387.791 7.98434 387.864 7.89052 387.956C7.7967 388.048 7.72159 388.158 7.6695 388.279C7.6174 388.401 7.58934 388.532 7.58691 388.665Z" fill="#CCCCCC"/>
<path d="M264.281 290.817C263.623 294.874 261.575 298.561 258.501 301.221C255.427 303.881 251.527 305.341 247.495 305.341C243.464 305.341 239.564 303.881 236.49 301.221C233.416 298.561 231.367 294.874 230.71 290.817H187.766V385.747H307.224V290.817H264.281Z" fill="#D6D6E3"/>
<path d="M201.658 385.395H189.851V387.521H201.658V385.395Z" fill="#B6B3C5"/>
<path d="M306.182 385.749H294.375V387.874H306.182V385.749Z" fill="#B6B3C5"/>
<path d="M307.573 378.228H188.114V381.532H307.573V378.228Z" fill="#131313"/>
<path d="M487.739 293.297H7.2524C5.48677 293.295 3.79404 292.578 2.54555 291.305C1.29706 290.031 0.594778 288.305 0.592773 286.504L0.592773 6.79373C0.594624 4.9926 1.29684 3.26578 2.54534 1.99213C3.79385 0.718487 5.48667 0.00204485 7.2524 0H487.739C489.505 0.00204456 491.197 0.718404 492.446 1.99192C493.694 3.26544 494.397 4.99211 494.399 6.79313V286.504C494.396 288.305 493.694 290.031 492.446 291.305C491.197 292.578 489.505 293.294 487.739 293.297Z" fill="#131313"/>
<path d="M482.591 11.3354H12.3984V281.962H482.591V11.3354Z" fill="white"/>
<path d="M247.936 146.088L197.522 107.57L147.797 145.561L146.658 144.013L197.522 105.15L247.697 143.485L297.556 87.8284L297.757 87.7452L348.051 67.0752L348.761 68.8709L298.666 89.4589L247.936 146.088Z" fill="#D6D6E3"/>
<path d="M399.456 217.385H96.2307C95.979 217.385 95.7377 217.283 95.5597 217.102C95.3817 216.92 95.2817 216.674 95.2817 216.417V68.168C95.2817 67.9112 95.3817 67.665 95.5597 67.4835C95.7377 67.3019 95.979 67.2 96.2307 67.2C96.4824 67.2 96.7238 67.3019 96.9017 67.4835C97.0797 67.665 97.1797 67.9112 97.1797 68.168V215.449H399.456C399.708 215.449 399.949 215.551 400.127 215.733C400.305 215.914 400.405 216.16 400.405 216.417C400.405 216.674 400.305 216.92 400.127 217.102C399.949 217.283 399.708 217.385 399.456 217.385Z" fill="#004D61"/>
<path d="M161.018 206.737H133.438C132.691 206.737 131.975 206.434 131.447 205.895C130.919 205.356 130.622 204.626 130.621 203.864V165.083C130.622 164.321 130.919 163.591 131.447 163.052C131.975 162.514 132.691 162.211 133.438 162.21H161.017C161.764 162.211 162.48 162.514 163.008 163.052C163.536 163.591 163.833 164.321 163.834 165.083V203.865C163.833 204.626 163.536 205.356 163.008 205.895C162.48 206.433 161.764 206.736 161.018 206.737Z" fill="#FF5031"/>
<path d="M211.313 206.736H183.733C182.986 206.736 182.27 206.433 181.742 205.894C181.214 205.356 180.916 204.625 180.916 203.863V128.299C180.916 127.538 181.214 126.807 181.742 126.269C182.27 125.73 182.986 125.427 183.733 125.426H211.312C212.059 125.427 212.775 125.73 213.303 126.269C213.831 126.807 214.128 127.538 214.129 128.299V203.863C214.128 204.625 213.831 205.356 213.303 205.894C212.775 206.433 212.059 206.736 211.312 206.736H211.313Z" fill="#FF5031"/>
<path d="M261.607 206.737H234.027C233.28 206.737 232.564 206.434 232.036 205.895C231.508 205.356 231.211 204.626 231.21 203.864V165.083C231.211 164.321 231.508 163.591 232.036 163.052C232.564 162.514 233.28 162.211 234.027 162.21H261.606C262.353 162.211 263.069 162.514 263.597 163.052C264.126 163.591 264.423 164.321 264.424 165.083V203.865C264.423 204.626 264.125 205.356 263.597 205.895C263.069 206.433 262.354 206.736 261.607 206.737Z" fill="#FF5031"/>
<path d="M311.901 206.737H284.322C283.592 206.753 282.885 206.474 282.357 205.96C281.829 205.445 281.523 204.739 281.504 203.994V113.65C281.522 112.906 281.829 112.199 282.357 111.685C282.885 111.17 283.592 110.891 284.322 110.907H311.901C312.631 110.891 313.337 111.17 313.865 111.684C314.393 112.198 314.7 112.905 314.718 113.65V203.994C314.7 204.738 314.393 205.445 313.866 205.959C313.338 206.473 312.631 206.753 311.901 206.737Z" fill="#FF5031"/>
<path d="M362.196 206.737H334.616C333.87 206.736 333.154 206.433 332.625 205.895C332.097 205.356 331.8 204.626 331.799 203.864V87.6445C331.8 86.8827 332.097 86.1524 332.625 85.6138C333.154 85.0752 333.87 84.7723 334.616 84.7715H362.196C362.943 84.7723 363.659 85.0752 364.187 85.6138C364.715 86.1524 365.012 86.8827 365.013 87.6445V203.864C365.012 204.626 364.715 205.356 364.187 205.895C363.659 206.433 362.943 206.736 362.196 206.737Z" fill="#FF5031"/>
<path d="M147.108 150.316C150.328 150.316 152.938 147.821 152.938 144.742C152.938 141.663 150.328 139.168 147.108 139.168C143.889 139.168 141.279 141.663 141.279 144.742C141.279 147.821 143.889 150.316 147.108 150.316Z" fill="#004D61"/>
<path d="M197.386 113.154C200.605 113.154 203.215 110.492 203.215 107.208C203.215 103.924 200.605 101.261 197.386 101.261C194.166 101.261 191.556 103.924 191.556 107.208C191.556 110.492 194.166 113.154 197.386 113.154Z" fill="#004D61"/>
<path d="M247.663 150.316C250.883 150.316 253.493 147.821 253.493 144.742C253.493 141.663 250.883 139.168 247.663 139.168C244.444 139.168 241.834 141.663 241.834 144.742C241.834 147.821 244.444 150.316 247.663 150.316Z" fill="#004D61"/>
<path d="M297.941 94.5719C301.16 94.5719 303.77 91.9097 303.77 88.6256C303.77 85.3415 301.16 82.6792 297.941 82.6792C294.721 82.6792 292.111 85.3415 292.111 88.6256C292.111 91.9097 294.721 94.5719 297.941 94.5719Z" fill="#004D61"/>
<path d="M348.218 73.763C351.438 73.763 354.048 71.1002 354.048 67.8155C354.048 64.5307 351.438 61.8679 348.218 61.8679C344.999 61.8679 342.389 64.5307 342.389 67.8155C342.389 71.1002 344.999 73.763 348.218 73.763Z" fill="#004D61"/>
<path d="M399.39 171.032C399.39 171.032 390.756 169.513 377.953 157.668C367.823 148.3 354.16 150.142 348.891 151.323C348.711 151.363 348.548 151.457 348.422 151.594C348.297 151.732 348.216 151.904 348.19 152.09C348.164 152.276 348.194 152.465 348.277 152.632C348.359 152.8 348.49 152.938 348.652 153.027C350.781 154.215 354.082 155.952 355.629 156.15C355.629 156.15 352.438 159.517 355.83 161.319C356.236 161.523 356.689 161.607 357.14 161.563C357.59 161.518 358.02 161.347 358.38 161.069C360.011 159.854 364.542 162.613 371.112 164.046C371.112 164.046 396.717 191.076 402.672 186.494L399.39 171.032Z" fill="#FFB9B9"/>
<path d="M443.476 134.283C443.476 134.283 445.858 144.609 443.476 151.898L454.194 153.417L463.722 148.557V142.18C463.722 142.18 459.256 132.461 460.447 121.224L443.476 134.283Z" fill="#FFB9B9"/>
<path d="M473.825 358.103C473.825 358.103 481.592 373.592 480.375 383.918C479.158 394.245 490.498 385.133 489.307 379.059C489.055 386.412 492.641 353.31 494.317 345.559C494.499 344.721 494.369 343.844 493.953 343.099C493.537 342.353 492.864 341.792 492.065 341.524C488.485 340.323 482.492 338.85 479.482 341.102C475.036 344.436 473.825 358.103 473.825 358.103Z" fill="#131313"/>
<path d="M444.369 375.11C444.369 375.11 434.246 388.473 431.566 388.777C428.887 389.082 427.1 393.333 431.566 394.244C440.484 395.828 449.655 394.915 458.104 391.604C458.95 391.267 459.66 390.651 460.121 389.854C460.583 389.056 460.768 388.124 460.648 387.206L458.94 374.199L444.369 375.11Z" fill="#131313"/>
<path d="M427.695 233.285L417.986 234.604C419.318 246.172 419.279 257.861 417.869 269.419V311.014C417.869 311.014 417.682 314.679 425.138 320.006C432.957 325.551 440.492 331.501 447.715 337.833L474.731 361.708C474.731 361.708 485.45 348.345 483.961 340.449C483.961 340.449 466.097 334.678 463.715 325.263C462.349 319.876 455.423 315.36 449.753 312.521C446.189 310.755 443.324 307.799 441.634 304.143C439.944 300.486 439.532 296.35 440.465 292.422C440.796 291.057 441.308 289.744 441.986 288.52C446.75 280.016 453.598 260.883 453.598 260.883L440.497 235.411L427.695 233.285Z" fill="#131313"/>
<path d="M441.988 376.041C441.988 376.041 459.554 379.078 460.15 380.9C460.745 382.723 460.15 378.471 460.15 378.471C460.15 378.471 470.275 347.19 467.917 319.558C465.558 291.927 470.894 273.698 470.894 273.698C470.894 273.698 477.146 253.046 473.574 241.201C470.001 229.357 432.486 234.52 432.486 234.52C432.486 234.52 445.587 265.802 445.289 280.684C445.289 280.684 446.777 325.632 449.457 330.796C449.431 330.769 445.263 374.807 441.988 376.041Z" fill="#131313"/>
<path d="M444.052 142.18C444.052 142.18 445.838 153.404 463.703 148.558L451.819 240.878C451.819 240.878 417.281 242.093 417.579 237.841L424.698 181.965L444.052 142.18Z" fill="white"/>
<path d="M444.518 141.876C441.858 143.999 438.676 145.335 435.321 145.738C432.357 145.97 429.475 146.843 426.867 148.3C423.806 150.049 420.395 152.591 419.359 155.688C417.275 161.762 404.174 171.784 398.22 169.659L400.304 187.881C400.304 187.881 417.275 186.97 420.253 180.288L415.197 245.312H419.663C419.663 245.312 422.045 227.697 423.831 224.052C425.617 220.408 429.191 200.363 429.488 195.504C429.786 190.644 434.252 162.703 438.123 157.87L444.524 143.748L444.518 141.876Z" fill="#D6D6E3"/>
<path opacity="0.1" d="M459.702 130.183C459.314 127.305 460.091 125.508 460.447 122.135L443.476 135.194C443.476 135.194 443.883 136.957 444.194 139.539C445.05 139.68 445.916 139.75 446.783 139.75C452.674 139.75 456.913 135.056 459.702 130.183Z" fill="#131313"/>
<path d="M446.751 138.846C455.631 138.846 462.829 131.503 462.829 122.445C462.829 113.387 455.631 106.045 446.751 106.045C437.871 106.045 430.673 113.387 430.673 122.445C430.673 131.503 437.871 138.846 446.751 138.846Z" fill="#FFB9B9"/>
<path d="M430.592 108.48C430.497 105.928 430.903 103.382 431.787 100.993C431.542 101.369 431.438 101.822 431.495 102.27C431.552 102.718 431.766 103.129 432.097 103.429C432.576 100.824 433.887 98.4539 435.826 96.6893C434.768 96.8676 434.225 98.2004 434.486 99.2611C434.843 100.297 435.478 101.209 436.32 101.894C436.23 100.289 437.27 98.7917 438.584 97.9122C439.953 97.1099 441.449 96.5574 443.005 96.2793C442.472 96.4724 442.016 96.8401 441.709 97.3251C441.402 97.8101 441.261 98.3851 441.308 98.9604C441.313 99.1559 441.392 99.3419 441.529 99.4786C441.678 99.5762 441.854 99.6232 442.031 99.6129C443.579 99.6738 445.129 99.6393 446.673 99.5095C448.571 99.2916 450.48 99.1878 452.39 99.1987C458.364 99.4548 464.368 103.617 465.706 109.558C465.983 111 466.13 112.465 466.142 113.934L466.434 121.435C466.604 123.623 466.515 125.825 466.171 127.992C465.757 129.992 464.916 131.875 463.706 133.506C462.497 135.136 460.95 136.474 459.175 137.425C457.02 134.238 456.828 130.143 456.081 126.346C455.963 125.471 455.643 124.636 455.149 123.91C454.893 123.551 454.535 123.282 454.122 123.14C453.71 122.998 453.265 122.99 452.849 123.118C452.042 123.447 451.696 124.702 452.365 125.263C451.767 125.982 450.65 125.446 449.976 124.806C448.091 122.982 446.793 120.617 446.254 118.024C445.986 116.719 445.717 115.112 444.462 114.666C444.03 114.545 443.58 114.514 443.136 114.574C440.519 114.757 436.427 115.86 433.894 115.013C431.57 114.233 430.592 110.729 430.592 108.48Z" fill="#131313"/>
<path d="M398.096 169.665C398.096 169.665 395.714 180.889 400.181 187.887L402.711 187.676L401.332 169.849L398.096 169.665Z" fill="#D6D6E3"/>
<path d="M462.68 139.017L481.885 155.873C481.885 155.873 493.198 167.718 488.434 186.852C488.434 186.852 486.35 214.793 483.968 216.008C483.968 216.008 475.631 233.015 475.036 249.112C475.036 249.112 463.275 224.967 458.207 238.937C453.14 252.908 441.98 256.103 441.98 256.103L448.531 173.501C448.531 173.501 465.062 144.153 462.68 139.017Z" fill="#D6D6E3"/>
<path d="M471.463 210.211C471.463 210.211 476.227 206.87 483.968 215.981L464.913 251.211L458.512 241.354C458.512 241.354 472.062 214.159 471.463 210.211Z" fill="#FFB9B9"/>
<path d="M466.848 211.577C466.848 211.577 477.386 223.646 481.496 221.712L485.301 212.673L471.016 206.414L466.848 211.577Z" fill="#D6D6E3"/>
<path opacity="0.1" d="M468.337 174.524C468.337 174.524 468.933 196.392 466.551 204.592L468.337 174.524Z" fill="#131313"/>
<path opacity="0.1" d="M420.103 178.776C420.103 178.776 423.675 177.561 423.675 174.524L420.103 178.776Z" fill="#131313"/>
</g>
<defs>
<clipPath id="clip0_157_118">
<rect width="512.744" height="395" fill="white" transform="translate(0.592773)"/>
</clipPath>
</defs>
</svg>
