<svg xmlns="http://www.w3.org/2000/svg" width="25" height="25" viewBox="0 0 25 25" fill="none">
  <g clip-path="url(#clip0_63_1163)">
    <path d="M12.3999 2.375C17.9199 2.375 22.3999 6.855 22.3999 12.375C22.3999 17.895 17.9199 22.375 12.3999 22.375C6.8799 22.375 2.3999 17.895 2.3999 12.375C2.3999 6.855 6.8799 2.375 12.3999 2.375ZM12.3999 6.375C10.4699 6.375 8.8999 7.945 8.8999 9.875C8.8999 11.805 10.4699 13.375 12.3999 13.375C14.3299 13.375 15.8999 11.805 15.8999 9.875C15.8999 7.945 14.3299 6.375 12.3999 6.375ZM12.3999 20.375C14.4299 20.375 16.8299 19.555 18.5399 17.495C16.8499 16.175 14.7199 15.375 12.3999 15.375C10.0799 15.375 7.9499 16.175 6.2599 17.495C7.9699 19.555 10.3699 20.375 12.3999 20.375Z" fill="#ffffff"/>
  </g>
  <defs>
    <clipPath id="clip0_63_1163">
      <rect width="24" height="24" fill="white" transform="matrix(-1 0 0 1 24.3999 0.375)"/>
    </clipPath>
  </defs>
</svg>