<svg xmlns="http://www.w3.org/2000/svg" width="21" height="21" viewBox="0 0 21 21" fill="none">
  <path d="M14.6199 2.455L16.0499 1.025C18.4499 2.855 20.0299 5.675 20.1699 8.875H18.1699C18.0199 6.225 16.6599 3.905 14.6199 2.455ZM2.22992 8.875H0.229923C0.379923 5.675 1.95992 2.855 4.34992 1.025L5.76992 2.455C3.74992 3.905 2.37992 6.225 2.22992 8.875ZM4.19992 9.375C4.19992 6.305 5.83992 3.735 8.69992 3.055V2.375C8.69992 1.545 9.36992 0.875 10.1999 0.875C11.0299 0.875 11.6999 1.545 11.6999 2.375V3.055C14.5699 3.735 16.1999 6.295 16.1999 9.375V14.375L18.1999 16.375V17.375H2.19992V16.375L4.19992 14.375V9.375ZM10.1999 20.375C10.0599 20.375 9.92992 20.365 9.79992 20.335C9.14992 20.195 8.61992 19.755 8.35992 19.155C8.25992 18.915 8.20992 18.655 8.20992 18.375H12.2099C12.1999 19.475 11.3099 20.375 10.1999 20.375Z" fill="#ffffff"/>
</svg>