<svg width="12" height="19" viewBox="0 0 12 19" fill="none" xmlns="http://www.w3.org/2000/svg">
<path id="Vector" d="M6.38991 8.775C4.11991 8.185 3.38991 7.575 3.38991 6.625C3.38991 5.535 4.39991 4.775 6.08991 4.775C7.86991 4.775 8.52991 5.625 8.58991 6.875H10.7999C10.7299 5.155 9.67991 3.575 7.58991 3.065V0.875H4.58991V3.035C2.64991 3.455 1.08991 4.715 1.08991 6.645C1.08991 8.955 2.99991 10.105 5.78991 10.775C8.28991 11.375 8.78991 12.255 8.78991 13.185C8.78991 13.875 8.29991 14.975 6.08991 14.975C4.02991 14.975 3.21991 14.055 3.10991 12.875H0.909912C1.02991 15.065 2.66991 16.295 4.58991 16.705V18.875H7.58991V16.725C9.53991 16.355 11.0899 15.225 11.0899 13.175C11.0899 10.335 8.65991 9.365 6.38991 8.775Z" fill="#ffffff"/>
</svg>
