<svg width="23" height="16" viewBox="0 0 23 16" fill="none" xmlns="http://www.w3.org/2000/svg">
<path id="Vector" d="M11.6001 0.625C6.6001 0.625 2.3301 3.735 0.600098 8.125C2.3301 12.515 6.6001 15.625 11.6001 15.625C16.6001 15.625 20.8701 12.515 22.6001 8.125C20.8701 3.735 16.6001 0.625 11.6001 0.625ZM11.6001 13.125C8.8401 13.125 6.6001 10.885 6.6001 8.125C6.6001 5.365 8.8401 3.125 11.6001 3.125C14.3601 3.125 16.6001 5.365 16.6001 8.125C16.6001 10.885 14.3601 13.125 11.6001 13.125ZM11.6001 5.125C9.9401 5.125 8.6001 6.465 8.6001 8.125C8.6001 9.785 9.9401 11.125 11.6001 11.125C13.2601 11.125 14.6001 9.785 14.6001 8.125C14.6001 6.465 13.2601 5.125 11.6001 5.125Z" fill="#ffffff"/>
</svg>
