<svg width="19" height="13" viewBox="0 0 19 13" fill="none" xmlns="http://www.w3.org/2000/svg">
<path id="Vector" d="M17.6001 12.375C17.8834 12.375 18.1208 12.279 18.3121 12.087C18.5041 11.8957 18.6001 11.6583 18.6001 11.375C18.6001 11.0917 18.5041 10.8543 18.3121 10.663C18.1208 10.471 17.8834 10.375 17.6001 10.375H1.6001C1.31676 10.375 1.07943 10.471 0.888098 10.663C0.696098 10.8543 0.600098 11.0917 0.600098 11.375C0.600098 11.6583 0.696098 11.8957 0.888098 12.087C1.07943 12.279 1.31676 12.375 1.6001 12.375H17.6001ZM17.6001 7.375C17.8834 7.375 18.1208 7.279 18.3121 7.087C18.5041 6.89567 18.6001 6.65833 18.6001 6.375C18.6001 6.09167 18.5041 5.854 18.3121 5.662C18.1208 5.47067 17.8834 5.375 17.6001 5.375H1.6001C1.31676 5.375 1.07943 5.47067 0.888098 5.662C0.696098 5.854 0.600098 6.09167 0.600098 6.375C0.600098 6.65833 0.696098 6.89567 0.888098 7.087C1.07943 7.279 1.31676 7.375 1.6001 7.375H17.6001ZM17.6001 2.375C17.8834 2.375 18.1208 2.27933 18.3121 2.088C18.5041 1.896 18.6001 1.65833 18.6001 1.375C18.6001 1.09167 18.5041 0.854 18.3121 0.662C18.1208 0.470667 17.8834 0.375 17.6001 0.375H1.6001C1.31676 0.375 1.07943 0.470667 0.888098 0.662C0.696098 0.854 0.600098 1.09167 0.600098 1.375C0.600098 1.65833 0.696098 1.896 0.888098 2.088C1.07943 2.27933 1.31676 2.375 1.6001 2.375H17.6001Z" fill="#ffffff"/>
</svg>
