<svg width="17" height="16" viewBox="0 0 17 16" fill="none" xmlns="http://www.w3.org/2000/svg">
<path id="Vector" d="M14.3682 5.66665L10.8266 2.16665L11.9932 0.99998C12.3127 0.680535 12.7052 0.520813 13.1707 0.520813C13.6357 0.520813 14.028 0.680535 14.3474 0.99998L15.5141 2.16665C15.8335 2.48609 16.0002 2.87165 16.0141 3.32331C16.028 3.77442 15.8752 4.1597 15.5557 4.47915L14.3682 5.66665ZM1.61825 15.7291C1.38213 15.7291 1.18436 15.6491 1.02491 15.4891C0.864912 15.3297 0.784912 15.1319 0.784912 14.8958V12.5416C0.784912 12.4305 0.805745 12.323 0.847412 12.2191C0.889079 12.1147 0.951579 12.0208 1.03491 11.9375L9.61825 3.35415L13.1599 6.89581L4.57658 15.4791C4.49325 15.5625 4.39963 15.625 4.29575 15.6666C4.1913 15.7083 4.08352 15.7291 3.97241 15.7291H1.61825Z" fill="#ffffff"/>
</svg>
