<svg width="20" height="21" viewBox="0 0 20 21" fill="none" xmlns="http://www.w3.org/2000/svg">
<path id="Vector" d="M11.8751 20.375H8.12509C7.87509 20.375 7.65843 20.2917 7.47509 20.125C7.29176 19.9583 7.18343 19.75 7.15009 19.5L6.85009 17.175C6.63343 17.0917 6.42943 16.9917 6.23809 16.875C6.04609 16.7583 5.85843 16.6333 5.67509 16.5L3.50009 17.4C3.26676 17.4833 3.03343 17.4917 2.80009 17.425C2.56676 17.3583 2.38343 17.2167 2.25009 17L0.400093 13.775C0.26676 13.5583 0.225093 13.325 0.275093 13.075C0.325093 12.825 0.450093 12.625 0.650093 12.475L2.52509 11.05C2.50843 10.9333 2.50009 10.8207 2.50009 10.712V10.037C2.50009 9.929 2.50843 9.81667 2.52509 9.7L0.650093 8.275C0.450093 8.125 0.325093 7.925 0.275093 7.675C0.225093 7.425 0.26676 7.19167 0.400093 6.975L2.25009 3.75C2.36676 3.51667 2.54576 3.37067 2.78709 3.312C3.02909 3.254 3.26676 3.26667 3.50009 3.35L5.67509 4.25C5.85843 4.11667 6.05009 3.99167 6.25009 3.875C6.45009 3.75833 6.65009 3.65833 6.85009 3.575L7.15009 1.25C7.18343 1 7.29176 0.791667 7.47509 0.625C7.65843 0.458333 7.87509 0.375 8.12509 0.375H11.8751C12.1251 0.375 12.3418 0.458333 12.5251 0.625C12.7084 0.791667 12.8168 1 12.8501 1.25L13.1501 3.575C13.3668 3.65833 13.5711 3.75833 13.7631 3.875C13.9544 3.99167 14.1418 4.11667 14.3251 4.25L16.5001 3.35C16.7334 3.26667 16.9668 3.25833 17.2001 3.325C17.4334 3.39167 17.6168 3.53333 17.7501 3.75L19.6001 6.975C19.7334 7.19167 19.7751 7.425 19.7251 7.675C19.6751 7.925 19.5501 8.125 19.3501 8.275L17.4751 9.7C17.4918 9.81667 17.5001 9.929 17.5001 10.037V10.712C17.5001 10.8207 17.4834 10.9333 17.4501 11.05L19.3251 12.475C19.5251 12.625 19.6501 12.825 19.7001 13.075C19.7501 13.325 19.7084 13.5583 19.5751 13.775L17.7251 16.975C17.5918 17.1917 17.4044 17.3377 17.1631 17.413C16.9211 17.4877 16.6834 17.4833 16.4501 17.4L14.3251 16.5C14.1418 16.6333 13.9501 16.7583 13.7501 16.875C13.5501 16.9917 13.3501 17.0917 13.1501 17.175L12.8501 19.5C12.8168 19.75 12.7084 19.9583 12.5251 20.125C12.3418 20.2917 12.1251 20.375 11.8751 20.375ZM10.0501 13.875C11.0168 13.875 11.8418 13.5333 12.5251 12.85C13.2084 12.1667 13.5501 11.3417 13.5501 10.375C13.5501 9.40833 13.2084 8.58333 12.5251 7.9C11.8418 7.21667 11.0168 6.875 10.0501 6.875C9.06676 6.875 8.23743 7.21667 7.56209 7.9C6.88743 8.58333 6.55009 9.40833 6.55009 10.375C6.55009 11.3417 6.88743 12.1667 7.56209 12.85C8.23743 13.5333 9.06676 13.875 10.0501 13.875Z" fill="#ffffff"/>
</svg>
