<svg width="460" height="245" viewBox="0 0 460 245" fill="none" xmlns="http://www.w3.org/2000/svg">
<path d="M97.5532 230.922C86.5392 222.67 78.5311 207.835 80.17 192.837C90.0874 204.677 103.327 212.101 117.547 213.797C123.033 214.428 129.193 214.473 133.089 218.959C135.513 221.75 136.543 225.83 136.596 229.774C136.649 233.718 135.824 237.6 135.006 241.43L135.207 242.388C122.069 241.829 108.567 239.175 97.5532 230.922Z" fill="#F0F0F0" fill-opacity="0.9"/>
<path d="M80.4458 192.834C84.5659 204.414 91.7545 214.207 100.991 220.822C102.957 222.286 105.112 223.386 107.376 224.079C109.6 224.672 111.922 224.569 114.101 223.782C116.145 223.094 118.166 222.119 120.32 222.015C121.423 221.98 122.52 222.214 123.539 222.702C124.558 223.189 125.476 223.918 126.232 224.842C128.169 227.087 129.29 229.998 130.299 232.889C131.42 236.099 132.54 239.453 134.822 241.831C135.099 242.119 134.694 242.595 134.418 242.308C130.446 238.171 130.009 231.535 126.888 226.737C125.431 224.497 123.379 222.749 120.87 222.676C118.676 222.611 116.591 223.615 114.526 224.331C112.411 225.135 110.157 225.332 107.961 224.903C105.673 224.345 103.485 223.343 101.49 221.941C96.9546 218.866 92.8679 214.99 89.3796 210.455C85.3735 205.306 82.163 199.406 79.8872 193.011C79.7465 192.615 80.306 192.441 80.4458 192.834Z" fill="white" fill-opacity="0.9"/>
<path d="M97.9077 218.893C96.7321 220.524 95.0905 221.622 93.2761 221.99C91.4617 222.358 89.5926 221.972 88.0026 220.902C87.6816 220.684 87.9609 220.1 88.2824 220.318C89.7614 221.318 91.5024 221.677 93.1914 221.33C94.8804 220.984 96.406 219.954 97.4929 218.428C97.7294 218.097 98.1429 218.564 97.9077 218.893Z" fill="white" fill-opacity="0.9"/>
<path d="M113.104 224.287C112.787 219.972 111.066 215.954 108.286 213.032C108.01 212.743 108.415 212.266 108.69 212.555C111.579 215.601 113.362 219.788 113.684 224.279C113.714 224.707 113.135 224.713 113.104 224.287Z" fill="white" fill-opacity="0.9"/>
<path d="M86.1024 205.027C86.6717 204.505 87.1192 203.828 87.4049 203.058C87.6905 202.288 87.8054 201.448 87.739 200.614C87.7039 200.187 88.2835 200.181 88.3184 200.606C88.3879 201.528 88.2601 202.455 87.9462 203.306C87.6322 204.158 87.1416 204.908 86.5173 205.492C86.4624 205.553 86.3896 205.587 86.3135 205.588C86.2374 205.589 86.1638 205.557 86.1076 205.498C86.0529 205.436 86.0218 205.352 86.0208 205.264C86.0198 205.175 86.0491 205.09 86.1024 205.027Z" fill="white" fill-opacity="0.9"/>
<path d="M117.739 165.392C117.768 165.658 117.797 165.925 117.829 166.193C118.229 169.77 118.881 173.303 119.779 176.758C119.844 177.026 119.914 177.297 119.987 177.563C122.226 185.86 125.786 193.607 130.485 200.41C132.357 203.116 134.405 205.653 136.612 208.001C139.66 211.243 143.189 214.48 145.072 218.57C145.272 218.994 145.45 219.432 145.604 219.882L136.207 242.031C136.163 242.069 136.124 242.11 136.081 242.148L135.741 243.052C135.62 242.94 135.496 242.821 135.375 242.709C135.305 242.645 135.236 242.575 135.166 242.51C135.119 242.466 135.073 242.421 135.029 242.384C135.013 242.369 134.998 242.354 134.987 242.341C134.943 242.304 134.905 242.264 134.866 242.229C134.173 241.566 133.484 240.896 132.797 240.219C132.793 240.216 132.793 240.216 132.79 240.209C127.57 235.034 122.679 229.314 118.698 222.921C118.579 222.729 118.455 222.534 118.339 222.332C116.559 219.439 114.987 216.383 113.64 213.196C112.907 211.448 112.252 209.659 111.676 207.835C110.197 203.118 109.373 198.163 109.233 193.152C108.955 183.162 111.459 173.181 117.289 165.94C117.439 165.755 117.586 165.575 117.739 165.392Z" fill="#F0F0F0" fill-opacity="0.9"/>
<path d="M117.963 165.579C115.189 177.677 115.801 190.473 119.712 202.148C120.515 204.679 121.66 207.048 123.104 209.169C124.57 211.182 126.477 212.708 128.629 213.587C130.621 214.453 132.746 215.074 134.52 216.481C135.419 217.217 136.172 218.164 136.73 219.258C137.289 220.352 137.64 221.57 137.76 222.831C138.132 225.965 137.502 229.065 136.794 232.072C136.008 235.411 135.145 238.864 135.723 242.342C135.793 242.764 135.22 242.864 135.15 242.443C134.145 236.392 137.271 230.79 137.292 224.798C137.301 222.002 136.578 219.186 134.613 217.39C132.895 215.819 130.705 215.177 128.681 214.32C126.571 213.498 124.669 212.094 123.139 210.232C121.605 208.202 120.383 205.888 119.524 203.387C117.513 197.792 116.28 191.869 115.869 185.833C115.367 178.948 115.893 172.015 117.424 165.334C117.519 164.92 118.057 165.168 117.963 165.579Z" fill="white" fill-opacity="0.9"/>
<path d="M118.26 198.474C116.467 198.962 114.582 198.702 112.94 197.74C111.299 196.778 110.008 195.176 109.299 193.221C109.157 192.824 109.686 192.552 109.828 192.948C110.486 194.77 111.688 196.262 113.218 197.155C114.748 198.047 116.505 198.282 118.172 197.815C118.534 197.714 118.62 198.374 118.26 198.474Z" fill="white" fill-opacity="0.9"/>
<path d="M127.569 213.301C129.575 209.636 130.305 205.236 129.615 200.979C129.547 200.557 130.119 200.457 130.188 200.878C130.899 205.309 130.13 209.886 128.036 213.695C127.836 214.058 127.37 213.662 127.569 213.301Z" fill="white" fill-opacity="0.9"/>
<path d="M116.095 179.23C116.823 179.207 117.534 178.977 118.166 178.56C118.797 178.143 119.328 177.552 119.712 176.84C119.908 176.474 120.374 176.871 120.179 177.234C119.752 178.018 119.164 178.67 118.468 179.133C117.771 179.596 116.987 179.855 116.183 179.889C116.107 179.899 116.031 179.876 115.969 179.824C115.908 179.773 115.866 179.696 115.852 179.61C115.841 179.523 115.86 179.434 115.906 179.363C115.951 179.292 116.019 179.244 116.095 179.23Z" fill="white" fill-opacity="0.9"/>
<path d="M433.673 230.922C444.687 222.67 452.695 207.835 451.056 192.837C441.139 204.677 427.899 212.101 413.679 213.797C408.193 214.428 402.034 214.473 398.138 218.959C395.714 221.75 394.684 225.83 394.631 229.774C394.578 233.718 395.402 237.6 396.221 241.43L396.02 242.388C409.157 241.829 422.659 239.175 433.673 230.922Z" fill="#F0F0F0" fill-opacity="0.9"/>
<path d="M450.781 192.834C446.661 204.414 439.472 214.207 430.236 220.822C428.269 222.286 426.114 223.386 423.85 224.079C421.626 224.672 419.304 224.569 417.126 223.782C415.082 223.094 413.06 222.119 410.907 222.015C409.804 221.98 408.707 222.214 407.688 222.702C406.669 223.189 405.751 223.918 404.994 224.842C403.057 227.087 401.937 229.998 400.927 232.889C399.807 236.099 398.687 239.453 396.404 241.831C396.128 242.119 396.533 242.595 396.809 242.308C400.78 238.171 401.217 231.535 404.339 226.737C405.795 224.497 407.848 222.749 410.356 222.676C412.55 222.611 414.636 223.615 416.7 224.331C418.815 225.135 421.069 225.332 423.266 224.903C425.553 224.345 427.741 223.343 429.736 221.941C434.272 218.866 438.359 214.99 441.847 210.455C445.853 205.306 449.063 199.406 451.339 193.011C451.48 192.615 450.92 192.441 450.781 192.834Z" fill="white" fill-opacity="0.9"/>
<path d="M433.319 218.893C434.494 220.524 436.136 221.622 437.95 221.99C439.765 222.358 441.634 221.972 443.224 220.902C443.545 220.684 443.266 220.1 442.944 220.318C441.465 221.318 439.724 221.677 438.035 221.33C436.346 220.984 434.82 219.954 433.734 218.428C433.497 218.097 433.084 218.564 433.319 218.893Z" fill="white" fill-opacity="0.9"/>
<path d="M418.122 224.287C418.44 219.972 420.16 215.954 422.94 213.032C423.216 212.743 422.811 212.266 422.536 212.555C419.648 215.601 417.865 219.788 417.543 224.279C417.512 224.707 418.092 224.713 418.122 224.287Z" fill="white" fill-opacity="0.9"/>
<path d="M445.124 205.027C444.555 204.505 444.107 203.828 443.822 203.058C443.536 202.288 443.421 201.448 443.487 200.614C443.523 200.187 442.943 200.181 442.908 200.606C442.838 201.528 442.966 202.455 443.28 203.306C443.594 204.158 444.085 204.908 444.709 205.492C444.764 205.553 444.837 205.587 444.913 205.588C444.989 205.589 445.063 205.557 445.119 205.498C445.173 205.436 445.205 205.352 445.206 205.264C445.207 205.175 445.177 205.09 445.124 205.027Z" fill="white" fill-opacity="0.9"/>
<path d="M413.487 165.392C413.458 165.658 413.43 165.925 413.397 166.193C412.997 169.77 412.345 173.303 411.448 176.758C411.382 177.026 411.312 177.297 411.24 177.563C409 185.86 405.441 193.607 400.742 200.41C398.87 203.116 396.821 205.653 394.615 208.001C391.567 211.243 388.038 214.48 386.155 218.57C385.954 218.994 385.776 219.432 385.623 219.882L395.02 242.031C395.063 242.069 395.102 242.11 395.145 242.148L395.486 243.052C395.607 242.94 395.73 242.821 395.851 242.709C395.922 242.644 395.99 242.575 396.061 242.51C396.107 242.466 396.154 242.421 396.198 242.384C396.213 242.369 396.228 242.354 396.24 242.341C396.284 242.304 396.321 242.264 396.361 242.229C397.053 241.566 397.743 240.896 398.429 240.219C398.434 240.216 398.434 240.216 398.436 240.209C403.657 235.034 408.548 229.314 412.528 222.921C412.648 222.729 412.772 222.534 412.887 222.332C414.668 219.439 416.239 216.383 417.586 213.196C418.319 211.448 418.975 209.659 419.55 207.834C421.029 203.118 421.854 198.163 421.994 193.152C422.271 183.162 419.767 173.18 413.937 165.94C413.788 165.755 413.641 165.575 413.487 165.392Z" fill="#F0F0F0" fill-opacity="0.9"/>
<path d="M413.264 165.579C416.038 177.677 415.426 190.473 411.515 202.148C410.712 204.679 409.567 207.048 408.122 209.169C406.657 211.182 404.749 212.708 402.597 213.587C400.605 214.453 398.481 215.074 396.707 216.481C395.808 217.217 395.054 218.164 394.496 219.258C393.937 220.352 393.586 221.57 393.466 222.831C393.095 225.965 393.725 229.065 394.433 232.072C395.219 235.411 396.081 238.864 395.503 242.342C395.433 242.764 396.006 242.864 396.076 242.443C397.081 236.392 393.955 230.79 393.935 224.798C393.925 222.002 394.649 219.186 396.613 217.39C398.331 215.819 400.522 215.177 402.545 214.32C404.655 213.498 406.558 212.094 408.087 210.232C409.621 208.202 410.844 205.888 411.702 203.387C413.713 197.792 414.947 191.869 415.358 185.833C415.86 178.948 415.334 172.015 413.802 165.334C413.707 164.92 413.169 165.168 413.264 165.579Z" fill="white" fill-opacity="0.9"/>
<path d="M412.967 198.474C414.759 198.962 416.645 198.702 418.286 197.74C419.927 196.778 421.218 195.176 421.927 193.221C422.069 192.824 421.54 192.552 421.398 192.948C420.741 194.77 419.539 196.262 418.009 197.155C416.478 198.047 414.721 198.282 413.054 197.815C412.692 197.714 412.606 198.374 412.967 198.474Z" fill="white" fill-opacity="0.9"/>
<path d="M403.658 213.301C401.652 209.636 400.921 205.236 401.611 200.979C401.68 200.557 401.107 200.457 401.038 200.878C400.327 205.309 401.096 209.886 403.191 213.695C403.39 214.058 403.856 213.662 403.658 213.301Z" fill="white" fill-opacity="0.9"/>
<path d="M415.132 179.23C414.404 179.207 413.692 178.977 413.061 178.56C412.429 178.143 411.898 177.552 411.514 176.84C411.319 176.474 410.853 176.871 411.047 177.234C411.474 178.018 412.062 178.67 412.759 179.133C413.455 179.596 414.24 179.855 415.044 179.889C415.119 179.899 415.196 179.876 415.257 179.824C415.318 179.773 415.36 179.696 415.374 179.61C415.385 179.523 415.366 179.434 415.321 179.363C415.275 179.292 415.207 179.244 415.132 179.23Z" fill="white" fill-opacity="0.9"/>
<path d="M119.246 158.144C118.829 157.856 118.473 157.466 118.201 157.002C117.93 156.538 117.75 156.011 117.675 155.458C117.6 154.906 117.631 154.341 117.766 153.804C117.901 153.267 118.137 152.77 118.457 152.349L112.598 140.542L118.729 140.998L123.353 152.14C123.932 152.805 124.279 153.692 124.328 154.631C124.377 155.571 124.125 156.499 123.619 157.239C123.113 157.979 122.388 158.48 121.582 158.647C120.776 158.814 119.945 158.635 119.246 158.144Z" fill="#FFB6B6" fill-opacity="0.9"/>
<path d="M74.1454 238.633H78.2017L80.1314 220.645L74.1449 220.645L74.1454 238.633Z" fill="#FFB6B6" fill-opacity="0.9"/>
<path d="M73.111 237.111L81.0988 237.111C82.4488 237.111 83.7439 237.727 84.6985 238.825C85.6531 239.923 86.1895 241.411 86.1896 242.963V243.154L73.1112 243.154L73.111 237.111Z" fill="#2F2E41" fill-opacity="0.9"/>
<path d="M101.936 238.633H105.992L107.922 220.645L101.935 220.645L101.936 238.633Z" fill="#FFB6B6" fill-opacity="0.9"/>
<path d="M100.902 237.111L108.889 237.111C110.239 237.111 111.534 237.727 112.489 238.825C113.444 239.923 113.98 241.411 113.98 242.963V243.154L100.902 243.154L100.902 237.111Z" fill="#2F2E41" fill-opacity="0.9"/>
<path d="M112.366 141.05C112.366 141.05 113.482 159.317 111.284 168.517C109.087 177.716 108.695 233.352 108.695 233.352H101.33L94.946 157.62L80.2296 233.619L73.2143 233.064L77.0616 143.51L112.366 141.05Z" fill="#2F2E41" fill-opacity="0.9"/>
<path d="M80.1051 79.4716L85.7355 74.7475L95.1702 77.1096L97.724 84.0869L102.125 86.5956C103.572 87.4205 104.823 88.637 105.771 90.1406C106.718 91.6442 107.335 93.3899 107.566 95.2277L113.853 145.145L77.0616 143.51L72.6075 84.7224C72.561 84.1083 72.6221 83.4897 72.7872 82.9032C72.9523 82.3168 73.218 81.7744 73.5686 81.3081C73.9193 80.8418 74.3477 80.4611 74.8286 80.1885C75.3095 79.916 75.833 79.7571 76.3682 79.7214L80.1051 79.4716Z" fill="#3F3D56" fill-opacity="0.9"/>
<path d="M104.453 90.4949L107.851 95.7616L122.651 147.665L115.714 150.859L104.605 126.673L104.453 90.4949Z" fill="#3F3D56" fill-opacity="0.9"/>
<path d="M92.1351 72.2811C96.6735 72.2811 100.353 68.051 100.353 62.8328C100.353 57.6147 96.6735 53.3845 92.1351 53.3845C87.5968 53.3845 83.9177 57.6147 83.9177 62.8328C83.9177 68.051 87.5968 72.2811 92.1351 72.2811Z" fill="#FFB9B9" fill-opacity="0.9"/>
<path d="M74.2212 101.705L87.6308 123.15L102.62 134.388L74.2212 101.705Z" fill="black" fill-opacity="0.9"/>
<path d="M87.7802 69.6632C87.2086 68.3511 86.6206 66.9228 86.8391 65.4769C87.0576 64.031 88.5007 62.7712 89.6144 63.488C90.0765 61.5679 92.1221 60.7276 93.844 60.9492C95.566 61.1709 97.1515 62.1259 98.8471 62.5359C100.543 62.9459 102.602 62.6206 103.518 60.9298L101.326 60.8862L103.609 57.841L100.962 57.6134C101.879 56.4757 101.635 54.5428 100.748 53.3748C99.8603 52.2069 98.5135 51.6543 97.1992 51.3048C94.5756 50.6095 91.8562 50.5376 89.2076 51.0936C87.9588 51.315 86.7555 51.7964 85.657 52.5142C84.6225 53.2397 83.7678 54.2589 83.1749 55.474C82.5352 56.8448 82.1894 58.3714 82.1663 59.9268C82.1273 62.0102 82.5436 64.0716 83.3773 65.922C84.2109 67.7724 85.4351 69.3527 86.9378 70.518" fill="#2F2E41" fill-opacity="0.9"/>
<path d="M393.738 243.397H138.725C136.099 243.393 133.581 242.192 131.724 240.057C129.867 237.922 128.822 235.027 128.819 232.008V11.8891C128.822 8.86952 129.867 5.97463 131.724 3.83951C133.581 1.70438 136.099 0.50339 138.725 0.5H393.738C396.364 0.503444 398.882 1.70446 400.739 3.83958C402.596 5.9747 403.64 8.86957 403.643 11.8891V232.008C403.64 235.027 402.596 237.922 400.739 240.057C398.882 242.192 396.364 243.393 393.738 243.397Z" fill="#E4E4E4" fill-opacity="0.9"/>
<path d="M329.556 101.566H290.191C288.245 101.566 286.38 100.678 285.004 99.0961C283.628 97.5144 282.856 95.3692 282.856 93.1324C282.856 90.8956 283.628 88.7504 285.004 87.1687C286.38 85.587 288.245 84.6985 290.191 84.6985H329.556C331.502 84.6985 333.367 85.587 334.743 87.1687C336.119 88.7504 336.891 90.8956 336.891 93.1324C336.891 95.3692 336.119 97.5144 334.743 99.0961C333.367 100.678 331.502 101.566 329.556 101.566Z" fill="white" fill-opacity="0.9"/>
<path d="M295.081 124.619H285.79C285.076 124.619 284.392 124.293 283.888 123.713C283.384 123.133 283.1 122.347 283.1 121.527C283.1 120.706 283.384 119.92 283.888 119.34C284.392 118.76 285.076 118.434 285.79 118.434H295.081C295.794 118.434 296.478 118.76 296.983 119.34C297.487 119.92 297.77 120.706 297.77 121.527C297.77 122.347 297.487 123.133 296.983 123.713C296.478 124.293 295.794 124.619 295.081 124.619Z" fill="white" fill-opacity="0.9"/>
<path d="M333.713 124.619H324.422C323.708 124.619 323.024 124.293 322.52 123.713C322.015 123.133 321.732 122.347 321.732 121.527C321.732 120.706 322.015 119.92 322.52 119.34C323.024 118.76 323.708 118.434 324.422 118.434H333.713C334.426 118.434 335.11 118.76 335.615 119.34C336.119 119.92 336.402 120.706 336.402 121.527C336.402 122.347 336.119 123.133 335.615 123.713C335.11 124.293 334.426 124.619 333.713 124.619Z" fill="white" fill-opacity="0.9"/>
<path d="M314.152 124.619H304.861C304.148 124.619 303.464 124.293 302.959 123.713C302.455 123.133 302.172 122.347 302.172 121.527C302.172 120.706 302.455 119.92 302.959 119.34C303.464 118.76 304.148 118.434 304.861 118.434H314.152C314.866 118.434 315.55 118.76 316.054 119.34C316.558 119.92 316.842 120.706 316.842 121.527C316.842 122.347 316.558 123.133 316.054 123.713C315.55 124.293 314.866 124.619 314.152 124.619Z" fill="white" fill-opacity="0.9"/>
<path d="M295.081 136.426H285.79C285.076 136.426 284.392 136.101 283.888 135.521C283.384 134.941 283.1 134.154 283.1 133.334C283.1 132.514 283.384 131.727 283.888 131.147C284.392 130.567 285.076 130.242 285.79 130.242H295.081C295.794 130.242 296.478 130.567 296.983 131.147C297.487 131.727 297.77 132.514 297.77 133.334C297.77 134.154 297.487 134.941 296.983 135.521C296.478 136.101 295.794 136.426 295.081 136.426Z" fill="white" fill-opacity="0.9"/>
<path d="M333.713 136.426H324.422C323.708 136.426 323.024 136.101 322.52 135.521C322.015 134.941 321.732 134.154 321.732 133.334C321.732 132.514 322.015 131.727 322.52 131.147C323.024 130.567 323.708 130.242 324.422 130.242H333.713C334.426 130.242 335.11 130.567 335.615 131.147C336.119 131.727 336.402 132.514 336.402 133.334C336.402 134.154 336.119 134.941 335.615 135.521C335.11 136.101 334.426 136.426 333.713 136.426Z" fill="white" fill-opacity="0.9"/>
<path d="M314.152 136.426H304.861C304.148 136.426 303.464 136.101 302.959 135.521C302.455 134.941 302.172 134.154 302.172 133.334C302.172 132.514 302.455 131.727 302.959 131.147C303.464 130.567 304.148 130.242 304.861 130.242H314.152C314.866 130.242 315.55 130.567 316.054 131.147C316.558 131.727 316.842 132.514 316.842 133.334C316.842 134.154 316.558 134.941 316.054 135.521C315.55 136.101 314.866 136.426 314.152 136.426Z" fill="white" fill-opacity="0.9"/>
<path d="M295.081 148.234H285.79C285.076 148.234 284.392 147.908 283.888 147.328C283.384 146.748 283.1 145.962 283.1 145.142C283.1 144.321 283.384 143.535 283.888 142.955C284.392 142.375 285.076 142.049 285.79 142.049H295.081C295.794 142.049 296.478 142.375 296.983 142.955C297.487 143.535 297.77 144.321 297.77 145.142C297.77 145.962 297.487 146.748 296.983 147.328C296.478 147.908 295.794 148.234 295.081 148.234Z" fill="white" fill-opacity="0.9"/>
<path d="M333.713 148.234H324.422C323.708 148.234 323.024 147.908 322.52 147.328C322.015 146.748 321.732 145.962 321.732 145.142C321.732 144.321 322.015 143.535 322.52 142.955C323.024 142.375 323.708 142.049 324.422 142.049H333.713C334.426 142.049 335.11 142.375 335.615 142.955C336.119 143.535 336.402 144.321 336.402 145.142C336.402 145.962 336.119 146.748 335.615 147.328C335.11 147.908 334.426 148.234 333.713 148.234Z" fill="white" fill-opacity="0.9"/>
<path d="M314.152 148.234H304.861C304.148 148.234 303.464 147.908 302.959 147.328C302.455 146.748 302.172 145.962 302.172 145.142C302.172 144.321 302.455 143.535 302.959 142.955C303.464 142.375 304.148 142.049 304.861 142.049H314.152C314.866 142.049 315.55 142.375 316.054 142.955C316.558 143.535 316.842 144.321 316.842 145.142C316.842 145.962 316.558 146.748 316.054 147.328C315.55 147.908 314.866 148.234 314.152 148.234Z" fill="white" fill-opacity="0.9"/>
<path d="M295.081 160.041H285.79C285.076 160.041 284.392 159.716 283.888 159.136C283.384 158.556 283.1 157.769 283.1 156.949C283.1 156.129 283.384 155.342 283.888 154.762C284.392 154.182 285.076 153.857 285.79 153.857H295.081C295.794 153.857 296.478 154.182 296.983 154.762C297.487 155.342 297.77 156.129 297.77 156.949C297.77 157.769 297.487 158.556 296.983 159.136C296.478 159.716 295.794 160.041 295.081 160.041Z" fill="white" fill-opacity="0.9"/>
<path d="M333.713 160.041H324.422C323.708 160.041 323.024 159.716 322.52 159.136C322.015 158.556 321.732 157.769 321.732 156.949C321.732 156.129 322.015 155.342 322.52 154.762C323.024 154.182 323.708 153.857 324.422 153.857H333.713C334.426 153.857 335.11 154.182 335.615 154.762C336.119 155.342 336.402 156.129 336.402 156.949C336.402 157.769 336.119 158.556 335.615 159.136C335.11 159.716 334.426 160.041 333.713 160.041Z" fill="white" fill-opacity="0.9"/>
<path d="M314.152 160.041H304.861C304.148 160.041 303.464 159.716 302.959 159.136C302.455 158.556 302.172 157.769 302.172 156.949C302.172 156.129 302.455 155.342 302.959 154.762C303.464 154.182 304.148 153.857 304.861 153.857H314.152C314.866 153.857 315.55 154.182 316.054 154.762C316.558 155.342 316.842 156.129 316.842 156.949C316.842 157.769 316.558 158.556 316.054 159.136C315.55 159.716 314.866 160.041 314.152 160.041Z" fill="white" fill-opacity="0.9"/>
<path d="M232.243 147.672C246.017 147.672 257.183 134.833 257.183 118.996C257.183 103.159 246.017 90.3211 232.243 90.3211C218.469 90.3211 207.304 103.159 207.304 118.996C207.304 134.833 218.469 147.672 232.243 147.672Z" fill="#CACACA" fill-opacity="0.9"/>
<path d="M232.243 154.138C230.298 154.135 228.434 153.246 227.059 151.665C225.684 150.084 224.91 147.94 224.908 145.704V92.289C224.907 91.1809 225.096 90.0834 225.465 89.0594C225.833 88.0353 226.373 87.1048 227.054 86.3209C227.735 85.537 228.544 84.9151 229.435 84.4909C230.325 84.0666 231.279 83.8482 232.243 83.8482C233.207 83.8482 234.161 84.0666 235.051 84.4909C235.942 84.9151 236.751 85.537 237.432 86.3209C238.113 87.1048 238.653 88.0353 239.022 89.0594C239.39 90.0834 239.579 91.1809 239.578 92.289V145.704C239.576 147.94 238.802 150.084 237.427 151.665C236.052 153.246 234.188 154.135 232.243 154.138Z" fill="white" fill-opacity="0.9"/>
<path d="M297.397 97.9448H290.551C290.291 97.9448 290.043 97.8263 289.859 97.6154C289.676 97.4046 289.573 97.1185 289.573 96.8203C289.573 96.522 289.676 96.236 289.859 96.0251C290.043 95.8142 290.291 95.6958 290.551 95.6958H297.397C297.656 95.6958 297.905 95.8142 298.089 96.0251C298.272 96.236 298.375 96.522 298.375 96.8203C298.375 97.1185 298.272 97.4046 298.089 97.6154C297.905 97.8263 297.656 97.9448 297.397 97.9448Z" fill="#E4E4E4" fill-opacity="0.9"/>
<path d="M308.155 98.2259H301.309C301.05 98.2259 300.801 98.1075 300.617 97.8966C300.434 97.6857 300.331 97.3997 300.331 97.1014C300.331 96.8032 300.434 96.5172 300.617 96.3063C300.801 96.0954 301.05 95.9769 301.309 95.9769H308.155C308.415 95.9769 308.663 96.0954 308.847 96.3063C309.03 96.5172 309.133 96.8032 309.133 97.1014C309.133 97.3997 309.03 97.6857 308.847 97.8966C308.663 98.1075 308.415 98.2259 308.155 98.2259Z" fill="#E4E4E4" fill-opacity="0.9"/>
<path d="M318.913 98.5071H312.067C311.808 98.5071 311.559 98.3886 311.376 98.1777C311.192 97.9668 311.089 97.6808 311.089 97.3826C311.089 97.0843 311.192 96.7983 311.376 96.5874C311.559 96.3765 311.808 96.258 312.067 96.258H318.913C319.173 96.258 319.422 96.3765 319.605 96.5874C319.788 96.7983 319.891 97.0843 319.891 97.3826C319.891 97.6808 319.788 97.9668 319.605 98.1777C319.422 98.3886 319.173 98.5071 318.913 98.5071Z" fill="#E4E4E4" fill-opacity="0.9"/>
<path d="M329.672 98.7882H322.826C322.566 98.7882 322.317 98.6697 322.134 98.4588C321.951 98.2479 321.847 97.9619 321.847 97.6637C321.847 97.3654 321.951 97.0794 322.134 96.8685C322.317 96.6576 322.566 96.5392 322.826 96.5392H329.672C329.931 96.5392 330.18 96.6576 330.363 96.8685C330.547 97.0794 330.65 97.3654 330.65 97.6637C330.65 97.9619 330.547 98.2479 330.363 98.4588C330.18 98.6697 329.931 98.7882 329.672 98.7882Z" fill="#E4E4E4" fill-opacity="0.9"/>
<path d="M161.337 208.676C161.336 210.069 161.576 211.447 162.043 212.732C162.51 214.017 163.194 215.182 164.055 216.16H160.016C158.824 216.16 157.644 215.89 156.543 215.366C155.442 214.841 154.441 214.073 153.598 213.104C152.756 212.135 152.087 210.985 151.631 209.718C151.175 208.452 150.94 207.096 150.94 205.725V36.551C150.94 35.1807 151.175 33.8237 151.631 32.5577C152.087 31.2917 152.756 30.1413 153.598 29.1723C154.441 28.2033 155.442 27.4347 156.543 26.9103C157.644 26.3859 158.824 26.116 160.016 26.116H165.894C164.508 27.0431 163.357 28.3722 162.558 29.9705C161.758 31.5689 161.337 33.3806 161.337 35.2246L161.337 208.676Z" fill="#CACACA" fill-opacity="0.9"/>
<path d="M459.418 244.5H0.582526C0.428394 244.499 0.280731 244.429 0.171901 244.303C0.0630708 244.178 0.00195312 244.008 0.00195312 243.831C0.00195312 243.653 0.0630708 243.483 0.171901 243.358C0.280731 243.232 0.428394 243.162 0.582526 243.161H459.418C459.572 243.161 459.721 243.232 459.83 243.357C459.939 243.483 460 243.653 460 243.831C460 244.008 459.939 244.178 459.83 244.304C459.721 244.429 459.572 244.5 459.418 244.5Z" fill="#CACACA" fill-opacity="0.9"/>
<path d="M160.359 75.55C157.268 74.5548 154.166 73.6327 151.053 72.7836C140.406 69.8615 129.613 67.6983 118.734 66.3064C116.89 65.7481 114.929 66.0499 113.278 67.1461C111.626 68.2423 110.419 70.0442 109.917 72.1595L104.484 95.2122C103.985 97.3371 104.24 99.6028 105.193 101.512C106.146 103.421 107.718 104.817 109.565 105.395L109.638 105.412C116.827 106.351 124.084 107.655 131.302 109.319C131.947 109.466 132.588 109.617 133.233 109.775C135.546 110.326 137.853 110.914 140.153 111.54C141.16 111.81 142.162 112.091 143.17 112.378C145.879 113.154 148.59 113.981 151.302 114.858C154.319 115.836 157.338 116.88 160.359 117.989C160.686 118.102 161.014 118.22 161.337 118.344V75.8705C161.014 75.758 160.686 75.6512 160.359 75.55Z" fill="white" fill-opacity="0.9"/>
<path d="M160.359 75.55C157.268 74.5548 154.166 73.6327 151.053 72.7836C140.406 69.8615 129.613 67.6983 118.734 66.3064C116.89 65.7481 114.929 66.0499 113.278 67.1461C111.626 68.2423 110.419 70.0442 109.917 72.1595L104.484 95.2122C103.985 97.3371 104.24 99.6028 105.193 101.512C106.146 103.421 107.718 104.817 109.565 105.395L109.638 105.412C116.827 106.351 124.084 107.655 131.302 109.319C131.947 109.466 132.588 109.617 133.233 109.775C135.546 110.326 137.853 110.914 140.153 111.54C141.16 111.81 142.162 112.091 143.17 112.378C145.879 113.154 148.59 113.981 151.302 114.858C154.319 115.836 157.338 116.88 160.359 117.989C160.686 118.102 161.014 118.22 161.337 118.344V117.157C161.009 117.039 160.681 116.921 160.359 116.803C157.581 115.785 154.807 114.828 152.036 113.93C150.999 113.587 149.962 113.255 148.926 112.935C147.058 112.356 145.195 111.801 143.336 111.27C142.348 110.984 141.362 110.708 140.378 110.444C140.304 110.421 140.226 110.404 140.153 110.382C138.475 109.927 136.795 109.492 135.111 109.078C134.466 108.92 133.82 108.763 133.174 108.611C125.389 106.755 117.546 105.31 109.785 104.298C108.198 103.79 106.849 102.581 106.033 100.935C105.217 99.2895 105 97.3396 105.428 95.5102L110.861 72.4519C111.296 70.6172 112.345 69.0557 113.78 68.1102C115.215 67.1646 116.917 66.9122 118.514 67.4084L118.587 67.4196C129.328 68.7909 139.985 70.9165 150.5 73.7844C150.608 73.8182 150.715 73.8463 150.823 73.8744C154.011 74.7515 157.19 75.6999 160.358 76.7194C160.681 76.8206 161.009 76.9275 161.336 77.0399L161.337 75.8705C161.014 75.758 160.686 75.6512 160.359 75.55Z" fill="#6C63FF" fill-opacity="0.9"/>
<path d="M161.337 76.4552V117.748C161.009 117.624 160.686 117.506 160.359 117.388C157.469 116.325 154.569 115.324 151.659 114.385C148.867 113.474 146.065 112.618 143.253 111.816C142.256 111.535 141.263 111.259 140.265 110.989C140.226 110.787 140.187 110.584 140.153 110.382C139.972 109.415 139.83 108.437 139.722 107.453C139.673 107.076 139.639 106.699 139.605 106.317C139.09 100.293 139.808 94.2144 141.699 88.566C143.591 82.9175 146.605 77.8557 150.5 73.7844C150.642 73.627 150.789 73.4752 150.936 73.329C154.094 74.1949 157.235 75.132 160.359 76.1403C160.686 76.2359 161.014 76.3428 161.337 76.4552Z" fill="#6C63FF" fill-opacity="0.9"/>
<path d="M128.862 93.3624L115.262 91.5182C114.784 91.4532 114.299 91.4972 113.835 91.6477C113.372 91.7982 112.938 92.0522 112.56 92.3952C112.182 92.7382 111.866 93.1636 111.631 93.6469C111.395 94.1303 111.245 94.6622 111.189 95.2123C111.132 95.7624 111.17 96.3199 111.301 96.8529C111.432 97.386 111.653 97.8842 111.951 98.3191C112.25 98.754 112.62 99.1171 113.04 99.3877C113.461 99.6582 113.923 99.8309 114.402 99.8958L128.001 101.74C128.966 101.868 129.936 101.551 130.698 100.859C131.46 100.166 131.951 99.1541 132.065 98.0449C132.179 96.9357 131.906 95.8198 131.305 94.942C130.705 94.0642 129.826 93.4961 128.862 93.3624ZM131.101 97.9167C131.016 98.7305 130.654 99.4722 130.093 99.9792C129.533 100.486 128.821 100.717 128.113 100.621L114.514 98.7769C113.808 98.6781 113.164 98.2615 112.725 97.6183C112.285 96.9752 112.085 96.158 112.169 95.3456C112.252 94.5333 112.612 93.7921 113.17 93.2844C113.728 92.7767 114.438 92.544 115.145 92.637L128.744 94.4813C129.452 94.5798 130.097 94.9964 130.539 95.6401C130.98 96.2837 131.183 97.1022 131.101 97.9167Z" fill="#6C63FF" fill-opacity="0.9"/>
<path d="M161.337 86.1261V105.71C161.022 105.926 160.696 106.118 160.359 106.283C158.603 107.184 156.657 107.476 154.76 107.122C152.863 106.769 151.096 105.785 149.679 104.293C149.542 104.152 149.405 104 149.273 103.843C149.141 103.691 149.014 103.528 148.891 103.365C147.415 101.415 146.562 98.9449 146.473 96.362C146.384 93.7792 147.064 91.2387 148.401 89.1608C149.739 87.0829 151.653 85.5921 153.827 84.935C156.001 84.2778 158.305 84.4937 160.359 85.5469C160.693 85.7197 161.02 85.913 161.337 86.1261Z" fill="white" fill-opacity="0.9"/>
<path d="M160.359 100.301C156.51 101.223 152.688 102.244 148.891 103.365C147.473 103.781 146.06 104.212 144.652 104.658C142.97 105.192 141.287 105.745 139.605 106.317C137.458 107.048 135.315 107.812 133.174 108.611C132.553 108.847 131.928 109.083 131.302 109.319C125.35 111.602 119.438 114.132 113.624 116.893C111.774 117.425 110.181 118.775 109.193 120.651C108.204 122.527 107.901 124.775 108.347 126.907L113.252 150.117C113.706 152.255 114.879 154.098 116.514 155.243C118.148 156.388 120.111 156.74 121.971 156.223L122.04 156.195C131.601 151.686 141.387 147.833 151.346 144.657C154.319 143.707 157.324 142.811 160.359 141.97C160.686 141.88 161.009 141.79 161.337 141.706V100.07C161.009 100.138 160.686 100.216 160.359 100.301Z" fill="white" fill-opacity="0.9"/>
<path d="M160.359 100.301C156.51 101.223 152.688 102.244 148.891 103.365C147.473 103.781 146.06 104.212 144.652 104.658C142.97 105.192 141.287 105.745 139.605 106.317C137.458 107.048 135.315 107.812 133.174 108.611C132.553 108.847 131.928 109.083 131.302 109.319C125.35 111.602 119.438 114.132 113.624 116.893C111.774 117.425 110.181 118.775 109.193 120.651C108.204 122.527 107.901 124.775 108.347 126.907L113.252 150.117C113.706 152.255 114.879 154.098 116.514 155.243C118.148 156.388 120.111 156.74 121.971 156.223L122.04 156.195C131.601 151.686 141.387 147.833 151.346 144.657C154.319 143.707 157.324 142.811 160.359 141.97C160.686 141.88 161.009 141.79 161.337 141.706V140.547C161.009 140.637 160.686 140.727 160.359 140.817C160.114 140.885 159.865 140.952 159.62 141.02C156.745 141.824 153.9 142.675 151.087 143.572C151.014 143.595 150.936 143.623 150.862 143.645C140.953 146.814 131.217 150.653 121.702 155.144C120.098 155.576 118.41 155.263 117.005 154.272C115.601 153.281 114.593 151.693 114.201 149.853L109.301 126.643C108.912 124.794 109.177 122.844 110.037 121.22C110.896 119.596 112.282 118.43 113.888 117.978L113.961 117.95C120.294 114.936 126.739 112.204 133.233 109.775C133.859 109.539 134.485 109.308 135.111 109.078C136.646 108.521 138.184 107.979 139.722 107.453C141.346 106.896 142.968 106.36 144.588 105.845C144.696 105.811 144.803 105.777 144.911 105.743C146.495 105.243 148.085 104.759 149.679 104.293C153.214 103.258 156.774 102.308 160.359 101.442C160.681 101.363 161.009 101.285 161.337 101.212L161.337 100.07C161.009 100.138 160.686 100.216 160.359 100.301Z" fill="#6C63FF" fill-opacity="0.9"/>
<path d="M161.337 100.638V141.126C161.014 141.211 160.686 141.295 160.359 141.385C157.297 142.24 154.249 143.151 151.214 144.118C151.092 143.96 150.975 143.803 150.862 143.645C147.693 139.381 145.365 134.378 144.037 128.98C142.71 123.583 142.414 117.919 143.17 112.378C143.194 112.193 143.224 112.001 143.253 111.816C143.278 111.636 143.307 111.45 143.336 111.27C143.638 109.429 144.057 107.616 144.588 105.845C144.652 105.631 144.715 105.417 144.784 105.204C146.275 104.731 147.771 104.278 149.273 103.843C152.945 102.752 156.641 101.761 160.358 100.869C160.681 100.784 161.009 100.711 161.337 100.638Z" fill="#6C63FF" fill-opacity="0.9"/>
<path d="M138.612 137.314C138.246 136.279 137.537 135.453 136.641 135.017C135.745 134.582 134.736 134.573 133.835 134.992L121.145 140.907C120.245 141.329 119.527 142.144 119.15 143.173C118.772 144.203 118.765 145.363 119.13 146.398C119.496 147.433 120.204 148.26 121.098 148.696C121.993 149.131 123.002 149.141 123.903 148.723L136.593 142.808C137.493 142.385 138.21 141.57 138.589 140.54C138.967 139.511 138.976 138.351 138.612 137.314ZM136.226 141.762L123.536 147.682C122.875 147.99 122.135 147.983 121.478 147.663C120.821 147.343 120.302 146.737 120.033 145.977C119.765 145.217 119.77 144.366 120.047 143.611C120.324 142.855 120.851 142.257 121.512 141.947L134.201 136.032C134.862 135.724 135.603 135.729 136.26 136.048C136.917 136.367 137.437 136.973 137.705 137.733C137.974 138.493 137.969 139.344 137.691 140.1C137.414 140.855 136.887 141.453 136.226 141.762Z" fill="#6C63FF" fill-opacity="0.9"/>
<path d="M161.337 110.978V133.024C161.014 133.119 160.688 133.194 160.359 133.249C158.395 133.566 156.395 133.196 154.617 132.187C152.839 131.179 151.366 129.579 150.389 127.596C149.412 125.612 148.977 123.337 149.14 121.065C149.303 118.793 150.056 116.63 151.302 114.858C151.415 114.695 151.532 114.537 151.659 114.385C151.776 114.228 151.904 114.076 152.036 113.93C153.117 112.7 154.431 111.774 155.874 111.224C157.318 110.674 158.853 110.515 160.359 110.759C160.688 110.81 161.015 110.883 161.337 110.978Z" fill="white" fill-opacity="0.9"/>
<path d="M160.359 72.6206V128.74C160.686 128.616 161.014 128.498 161.337 128.386V73.1322C161.009 72.9579 160.686 72.7893 160.359 72.6206ZM160.359 72.6206V128.74C160.686 128.616 161.014 128.498 161.337 128.386V73.1322C161.009 72.9579 160.686 72.7893 160.359 72.6206ZM160.359 72.6206V128.74C160.686 128.616 161.014 128.498 161.337 128.386V73.1322C161.009 72.9579 160.686 72.7893 160.359 72.6206ZM160.358 76.7194L160.359 141.385C160.686 141.295 161.014 141.211 161.337 141.126L161.336 77.0399C161.009 76.9275 160.681 76.8206 160.358 76.7194ZM160.358 76.7194L160.359 141.385C160.686 141.295 161.014 141.211 161.337 141.126L161.336 77.0399C161.009 76.9275 160.681 76.8206 160.358 76.7194ZM160.358 76.7194L160.359 141.385C160.686 141.295 161.014 141.211 161.337 141.126L161.336 77.0399C161.009 76.9275 160.681 76.8206 160.358 76.7194ZM160.358 76.7194L160.359 141.385C160.686 141.295 161.014 141.211 161.337 141.126L161.336 77.0399C161.009 76.9275 160.681 76.8206 160.358 76.7194ZM160.358 76.7194L160.359 141.97C160.686 141.88 161.009 141.79 161.337 141.706L161.336 77.0399C161.009 76.9275 160.681 76.8206 160.358 76.7194ZM373.689 23.5521H170.51C167.819 23.5572 165.24 24.7886 163.337 26.9765C161.434 29.1644 160.363 32.1304 160.359 35.2246V208.677C160.363 211.77 161.434 214.735 163.337 216.922C165.24 219.109 167.82 220.34 170.51 220.343H373.689C376.379 220.34 378.958 219.109 380.861 216.922C382.763 214.735 383.833 211.77 383.836 208.677V35.2246C383.834 32.1306 382.764 29.164 380.862 26.9757C378.96 24.7874 376.38 23.5562 373.689 23.5521ZM382.858 208.677C382.856 211.472 381.889 214.151 380.17 216.128C378.451 218.104 376.12 219.216 373.689 219.219H170.51C168.079 219.216 165.748 218.105 164.028 216.129C162.308 214.152 161.34 211.472 161.337 208.676L161.337 35.2246C161.34 32.4284 162.308 29.7479 164.028 27.7706C165.747 25.7934 168.079 24.6808 170.51 24.6766H373.689C376.121 24.6798 378.452 25.7923 380.171 27.7699C381.89 29.7475 382.857 32.4286 382.858 35.2246V208.677ZM160.358 76.7194L160.359 140.817C160.686 140.727 161.009 140.637 161.337 140.547L161.336 77.0399C161.009 76.9275 160.681 76.8206 160.358 76.7194ZM160.358 76.7194L160.359 141.385C160.686 141.295 161.014 141.211 161.337 141.126L161.336 77.0399C161.009 76.9275 160.681 76.8206 160.358 76.7194ZM160.358 76.7194L160.359 141.385C160.686 141.295 161.014 141.211 161.337 141.126L161.336 77.0399C161.009 76.9275 160.681 76.8206 160.358 76.7194ZM160.358 76.7194L160.359 141.385C160.686 141.295 161.014 141.211 161.337 141.126L161.336 77.0399C161.009 76.9275 160.681 76.8206 160.358 76.7194ZM160.359 72.6206V128.74C160.686 128.616 161.014 128.498 161.337 128.386V73.1322C161.009 72.9579 160.686 72.7893 160.359 72.6206ZM160.359 72.6206V128.74C160.686 128.616 161.014 128.498 161.337 128.386V73.1322C161.009 72.9579 160.686 72.7893 160.359 72.6206Z" fill="#2F2E41" fill-opacity="0.9"/>
<path d="M116.8 131.998C116.609 131.484 116.321 131.025 115.959 130.652C115.596 130.28 115.166 130.003 114.701 129.842C114.235 129.681 113.744 129.64 113.263 129.721C112.782 129.801 112.322 130.002 111.915 130.31L102.54 122.027L102.097 129.073L111.068 135.858C111.562 136.608 112.278 137.125 113.081 137.309C113.885 137.493 114.718 137.331 115.425 136.856C116.132 136.38 116.662 135.623 116.916 134.727C117.169 133.832 117.128 132.861 116.8 131.998Z" fill="#FFB6B6" fill-opacity="0.9"/>
<path d="M79.0239 82.0146L75.9391 80.3383C75.9391 80.3383 70.9695 81.9456 73.3839 89.5015L87.9951 120.799L105.834 132.807L111.395 127.141L93.5434 110.901L79.0239 82.0146Z" fill="#3F3D56" fill-opacity="0.9"/>
</svg>
